<?xml version="1.0" encoding="UTF-8" standalone="no"?><svg version="1.1" viewBox="0 0 24 24" xmlns="http://www.w3.org/2000/svg" xmlns:xlink="http://www.w3.org/1999/xlink"><!--Generated by IJSVG (https://github.com/curthard89/IJSVG)--><g fill="#00AB6B"><path d="M11.322,5c1.378,0 2.5,-1.122 2.5,-2.5c0,-1.378 -1.121,-2.5 -2.5,-2.5c-1.378,0 -2.5,1.122 -2.5,2.5c0,1.378 1.122,2.5 2.5,2.5Zm0,-4c0.827,0 1.5,0.673 1.5,1.5c0,0.827 -0.673,1.5 -1.5,1.5c-0.827,0 -1.5,-0.673 -1.5,-1.5c0,-0.827 0.674,-1.5 1.5,-1.5Zm7.086,5c1.378,0 2.5,-1.122 2.5,-2.5c0,-1.378 -1.121,-2.5 -2.5,-2.5c-1.378,0 -2.5,1.122 -2.5,2.5c0,1.378 1.122,2.5 2.5,2.5Zm0,-4c0.827,0 1.5,0.673 1.5,1.5c0,0.827 -0.672,1.5 -1.5,1.5c-0.827,0 -1.5,-0.673 -1.5,-1.5c0,-0.827 0.674,-1.5 1.5,-1.5Zm-2.597,12.237l-0.663,-5.808c-0.157,-1.385 -1.254,-2.429 -2.55,-2.429h-2.553c-1.294,0 -2.39,1.044 -2.548,2.429l-0.663,5.808c-0.055,0.486 0.095,0.969 0.411,1.323c0.273,0.305 0.634,0.483 1.027,0.505l0.552,7.472c0.019,0.261 0.237,0.463 0.498,0.463h4c0.262,0 0.48,-0.202 0.498,-0.463l0.552,-7.472c0.392,-0.022 0.754,-0.199 1.027,-0.505c0.318,-0.355 0.467,-0.837 0.412,-1.323Zm-1.156,0.657c-0.058,0.064 -0.182,0.173 -0.366,0.173h-0.381c-0.262,0 -0.48,0.202 -0.499,0.463l-0.551,7.47h-3.071l-0.55,-7.47c-0.02,-0.261 -0.237,-0.463 -0.499,-0.463h-0.38c-0.183,0 -0.308,-0.109 -0.366,-0.173c-0.127,-0.143 -0.187,-0.341 -0.164,-0.544l0.663,-5.808c0.1,-0.879 0.769,-1.542 1.556,-1.542h2.553c0.786,0 1.455,0.663 1.556,1.542l0.663,5.808c0.023,0.203 -0.037,0.401 -0.164,0.544Zm8.108,-0.579l-0.641,-5.124c-0.155,-1.249 -1.222,-2.19 -2.48,-2.19h-2.469c-0.278,0 -0.558,0.049 -0.833,0.147c-0.26,0.092 -0.396,0.378 -0.304,0.638c0.093,0.26 0.378,0.397 0.638,0.304c0.167,-0.059 0.335,-0.089 0.499,-0.089h2.469c0.755,0 1.394,0.565 1.488,1.314l0.641,5.124c0.018,0.144 -0.025,0.284 -0.121,0.393c-0.096,0.109 -0.229,0.169 -0.375,0.169h-0.367c-0.263,0 -0.48,0.202 -0.499,0.464l-0.467,6.536h-3.069l-0.36,-5.037c-0.019,-0.275 -0.261,-0.491 -0.534,-0.463c-0.275,0.019 -0.483,0.259 -0.463,0.534l0.393,5.501c0.02,0.261 0.238,0.464 0.499,0.464h4c0.262,0 0.48,-0.203 0.498,-0.463l0.467,-6.539c0.394,-0.026 0.763,-0.206 1.026,-0.504c0.285,-0.323 0.418,-0.752 0.364,-1.179Zm-15.933,2.3c-0.279,-0.026 -0.514,0.188 -0.534,0.463l-0.352,4.922h-3.07l-0.466,-6.536c-0.019,-0.261 -0.237,-0.464 -0.5,-0.464h-0.367c-0.146,0 -0.279,-0.06 -0.375,-0.169c-0.096,-0.109 -0.139,-0.248 -0.121,-0.393l0.641,-5.124c0.093,-0.749 0.732,-1.314 1.488,-1.314h2.469c0.112,0 0.231,0.017 0.377,0.056c0.267,0.066 0.541,-0.09 0.611,-0.357c0.07,-0.267 -0.09,-0.541 -0.357,-0.611c-0.231,-0.06 -0.431,-0.088 -0.632,-0.088h-2.468c-1.258,0 -2.324,0.941 -2.48,2.19l-0.641,5.124c-0.053,0.427 0.079,0.856 0.364,1.179c0.263,0.298 0.632,0.478 1.026,0.504l0.467,6.539c0.019,0.261 0.237,0.464 0.498,0.464h4c0.262,0 0.48,-0.203 0.499,-0.464l0.385,-5.387c0.02,-0.275 -0.188,-0.514 -0.462,-0.534Zm-2.422,-10.615c1.378,0 2.5,-1.122 2.5,-2.5c0,-1.378 -1.121,-2.5 -2.5,-2.5c-1.378,0 -2.5,1.122 -2.5,2.5c0,1.378 1.122,2.5 2.5,2.5Zm0,-4c0.827,0 1.5,0.673 1.5,1.5c0,0.827 -0.672,1.5 -1.5,1.5c-0.826,0 -1.5,-0.673 -1.5,-1.5c0,-0.827 0.674,-1.5 1.5,-1.5Z" transform="translate(0.592, 0)"></path></g></svg>